<svg viewBox="0 0 41 41" x="0" y="0" fill="none" xmlns="http://www.w3.org/2000/svg"><path id="Vector_4" d="M40.5,20.5c0,5.3 -2.11,10.39 -5.86,14.14c-3.75,3.75 -8.84,5.86 -14.14,5.86c-5.3,0 -10.39,-2.11 -14.14,-5.86c-3.75,-3.75 -5.86,-8.84 -5.86,-14.14c0,-5.3 2.11,-10.39 5.86,-14.14c3.75,-3.75 8.84,-5.86 14.14,-5.86c5.3,0 10.39,2.11 14.14,5.86c3.75,3.75 5.86,8.84 5.86,14.14zM21.22,15.27c-1.95,0.81 -5.84,2.48 -11.67,5.02c-0.94,0.37 -1.44,0.74 -1.48,1.11c-0.08,0.6 0.68,0.84 1.72,1.17l0.44,0.14c1.02,0.33 2.39,0.72 3.1,0.73c0.65,0.02 1.38,-0.25 2.17,-0.8c5.45,-3.67 8.27,-5.53 8.44,-5.57c0.13,-0.03 0.3,-0.07 0.41,0.04c0.12,0.1 0.11,0.3 0.1,0.35c-0.08,0.32 -3.07,3.1 -4.62,4.54c-0.48,0.45 -0.82,0.77 -0.89,0.84c-0.16,0.16 -0.31,0.32 -0.47,0.47c-0.95,0.91 -1.66,1.6 0.04,2.72c0.81,0.54 1.47,0.98 2.12,1.42c0.71,0.49 1.42,0.97 2.34,1.58c0.23,0.15 0.46,0.31 0.68,0.46c0.82,0.59 1.57,1.12 2.49,1.04c0.53,-0.05 1.09,-0.55 1.37,-2.05c0.66,-3.54 1.96,-11.22 2.26,-14.38c0.02,-0.26 0.01,-0.52 -0.03,-0.79c-0.03,-0.21 -0.13,-0.4 -0.29,-0.54c-0.22,-0.15 -0.5,-0.24 -0.77,-0.23c-0.75,0.01 -1.91,0.41 -7.46,2.73z" fill="#505050" xmlns="http://www.w3.org/2000/svg"/></svg>