<svg viewBox="0 0 37.8007 37.8" x="0" y="0" fill="none" xmlns="http://www.w3.org/2000/svg"><path id="Vector_3" d="M18.9007,0.5c-10.15,0 -18.4,8.25 -18.4,18.4c0,3.17 0.82,6.28 2.37,9.03l-2.34,8.35c-0.08,0.28 0,0.57 0.2,0.78c0.15,0.15 0.36,0.24 0.57,0.24c0.06,0 0.13,-0.01 0.19,-0.02l8.72,-2.16c2.66,1.43 5.66,2.18 8.69,2.18c10.15,0 18.4,-8.25 18.4,-18.4c0,-10.15 -8.25,-18.4 -18.4,-18.4zM28.1607,25.39c-0.4,1.09 -2.29,2.09 -3.19,2.22c-0.82,0.12 -1.85,0.17 -2.98,-0.18c-0.68,-0.22 -1.56,-0.51 -2.69,-0.99c-4.74,-2.02 -7.83,-6.73 -8.07,-7.04c-0.24,-0.31 -1.93,-2.53 -1.93,-4.82c0,-2.3 1.22,-3.43 1.65,-3.9c0.44,-0.46 0.95,-0.58 1.26,-0.58c0.32,0 0.63,0 0.91,0.02c0.29,0.01 0.68,-0.11 1.06,0.8c0.4,0.93 1.34,3.23 1.46,3.46c0.12,0.24 0.19,0.51 0.04,0.82c-0.16,0.31 -0.24,0.5 -0.47,0.78c-0.24,0.27 -0.5,0.61 -0.71,0.82c-0.24,0.23 -0.49,0.48 -0.21,0.95c0.27,0.46 1.22,1.99 2.63,3.23c1.8,1.59 3.32,2.08 3.8,2.31c0.47,0.24 0.74,0.2 1.02,-0.11c0.27,-0.32 1.18,-1.37 1.49,-1.83c0.32,-0.47 0.63,-0.39 1.07,-0.24c0.43,0.16 2.75,1.29 3.23,1.52c0.47,0.23 0.78,0.35 0.9,0.55c0.12,0.19 0.12,1.12 -0.27,2.21z" fill="#505050" xmlns="http://www.w3.org/2000/svg"/></svg>